<?xml version="1.0" standalone="no"?>
<!DOCTYPE svg PUBLIC "-//W3C//DTD SVG 20010904//EN"
 "http://www.w3.org/TR/2001/REC-SVG-20010904/DTD/svg10.dtd">
<svg version="1.0" xmlns="http://www.w3.org/2000/svg"
 width="2000.000000pt" height="1500.000000pt" viewBox="0 0 2000.000000 1500.000000"
 preserveAspectRatio="xMidYMid meet">

<g transform="translate(0.000000,1500.000000) scale(0.100000,-0.100000)"
fill="#000000" stroke="none">
<path d="M9610 12389 c-938 -81 -1790 -402 -2535 -954 -367 -272 -738 -643
-1010 -1010 -559 -755 -881 -1616 -955 -2559 -13 -166 -13 -566 0 -732 134
-1702 1108 -3182 2620 -3982 490 -258 1089 -446 1650 -516 394 -49 844 -50
1235 -1 1636 204 3067 1230 3794 2720 270 553 431 1149 481 1779 22 276 11
691 -25 981 -104 832 -424 1628 -930 2310 -271 367 -640 736 -1010 1010 -630
469 -1368 782 -2135 905 -269 43 -388 52 -735 55 -187 2 -387 -1 -445 -6z
m684 -1942 c56 -32 94 -84 107 -147 12 -58 3 -118 -23 -153 -9 -12 -114 -40
-362 -97 -192 -44 -351 -81 -352 -83 -4 -4 994 -4318 1000 -4324 3 -3 115 19
248 50 332 78 343 79 405 67 130 -27 205 -149 168 -276 -8 -29 -19 -55 -24
-58 -24 -15 -1976 -459 -2037 -463 -57 -4 -80 -1 -116 15 -98 43 -145 173
-103 280 l15 38 203 48 c520 124 577 139 577 155 0 14 -990 4313 -994 4317 0
1 -134 -29 -296 -67 -162 -38 -328 -72 -367 -76 -127 -11 -197 33 -229 144
-18 61 -14 125 10 171 14 26 33 31 943 242 510 118 964 222 1008 232 95 21
163 16 219 -15z"/>
</g>
</svg>
